<svg xmlns="http://www.w3.org/2000/svg" viewBox="0 0 100 138" fill="none" role="img" aria-label="CJ-Uy">
  <g stroke="#0a0a0a" stroke-linecap="round" stroke-linejoin="round">
    <circle cx="50" cy="50" r="46" stroke-width="2.4"/>
    <path d="M41.8 10.9 A40 40 0 0 0 10.9 41.8" stroke-width="1.5"/>
    <path d="M58.2 10.9 A40 40 0 0 1 89.1 41.8" stroke-width="1.5"/>
    <path d="M89.1 58.2 A40 40 0 0 1 58.2 89.1" stroke-width="1.5"/>
    <path d="M41.8 89.1 A40 40 0 0 1 10.9 58.2" stroke-width="1.5"/>
    <circle cx="50" cy="12.8" r="1.8" fill="#0a0a0a" stroke="none"/>
    <circle cx="87.2" cy="50" r="1.8" fill="#0a0a0a" stroke="none"/>
    <circle cx="50" cy="87.2" r="1.8" fill="#0a0a0a" stroke="none"/>
    <circle cx="12.8" cy="50" r="1.8" fill="#0a0a0a" stroke="none"/>
    <path d="M43.1 39.5 A13.5 13.5 0 1 0 43.1 60.5" stroke-width="3.4"/>
    <path d="M79 38 V53.5 A12.5 12.5 0 0 1 66.5 66 A12.5 12.5 0 0 1 58.5 63.1" stroke-width="3.4"/>
    <path d="M58.5 38 H80.8" stroke-width="3.4"/>
    <path d="M50 18 V44 M46.2 18 H53.8 M50 56 V82 M46.2 82 H53.8" stroke-width="2.4"/>
  </g>
  <path fill="#e34234" d="M50 45.3 54 53H46Z"/>
  <text x="50" y="127" fill="#0a0a0a" text-anchor="middle"
        font-family="'Instrument Serif', Georgia, 'Times New Roman', serif"
        font-size="27" letter-spacing="0.6">CJ-Uy</text>
</svg>
